<svg id="_ÎÓÈ_1" data-name="—ÎÓÈ_1"
    xmlns="http://www.w3.org/2000/svg"
    xmlns:xlink="http://www.w3.org/1999/xlink" viewBox="0 0 948 947">
    <defs>
        <filter id="luminosity-invert-noclip" x="54.51" y="53.93" width="840.64" height="838.75" filterUnits="userSpaceOnUse" color-interpolation-filters="sRGB">
            <feColorMatrix values="-1 0 0 0 1 0 -1 0 0 1 0 0 -1 0 1 0 0 0 1 0" result="invert" />
            <feFlood flood-color="#fff" result="bg" />
            <feBlend in="invert" in2="bg" />
        </filter>
        <mask id="mask" x="54.51" y="53.93" width="840.64" height="838.75" maskUnits="userSpaceOnUse">
            <circle cx="474.83" cy="473.3" r="296.02" style="fill: #fff; filter: url(#luminosity-invert-noclip)" />
        </mask>
    </defs>
    <title>What-Is-chart</title>
    <g style="mask: url(#mask)">
        <path d="M474.83,473.3V53.93c92.64,0,171.55,25.63,246.5,80.09Z" class="general-slice retirement-slice" style="fill: #838e6e" />
        <path d="M474.83,473.3,721.33,134c74.95,54.46,123.72,121.58,152.35,209.69Z" class="general-slice estate-slice" style="fill: #b5bba8" />
        <path d="M474.83,473.3,873.68,343.71c28.62,88.11,28.62,171.07,0,259.18Z" class="general-slice investment-slice" style="fill: #604f1f" />
        <path d="M474.83,473.3,873.68,602.89C845.05,691,796.28,758.12,721.33,812.58Z" class="general-slice education-slice" style="fill: #80724c" />
        <path d="M474.83,473.3l246.5,339.28c-75,54.45-153.86,80.09-246.5,80.09Z" class="general-slice insurance-slice" style="fill: #dfc479" />
        <path d="M474.83,473.3V892.67c-92.65,0-171.55-25.64-246.5-80.09Z" class="general-slice charitable-slice" style="fill: #ecdcaf" />
        <path d="M474.83,473.3,228.33,812.58C153.38,758.12,104.61,691,76,602.89Z" class="general-slice tax-slice" style="fill: #7d5a35" />
        <path d="M474.83,473.3,76,602.89c-28.63-88.11-28.63-171.07,0-259.18Z" class="general-slice cashflow-slice" style="fill: #a77847" />
        <path d="M474.83,473.3,76,343.71C104.61,255.6,153.38,188.48,228.33,134Z" class="general-slice debt-slice" style="fill: #b9936c" />
        <path d="M474.83,473.3,228.33,134c74.95-54.46,153.85-80.09,246.5-80.09Z" class="general-slice business-slice" style="fill: #737553" />
    </g>
    <path d="M509.7,19.06q.75-.06,1.74-.06c.65,0,1.24,0,1.78.08a7,7,0,0,1,1.7.35,3.88,3.88,0,0,1,1.38.78,3.28,3.28,0,0,1,.89,1.26,3.85,3.85,0,0,1,.22,1.81,3.82,3.82,0,0,1-1.12,2.53A4.27,4.27,0,0,1,513.93,27l.88.81,2.93,5.75-1.9-.17-3.27-6.27-1.9-.47-.55,6.23-1.63-.14Zm3.44,1.44-.53-.05-.54,0h-.48a1.83,1.83,0,0,0-.37,0l-.45,5.07,1.53.14a3.64,3.64,0,0,0,2.3-.47,2.47,2.47,0,0,0,1.07-2,2.32,2.32,0,0,0-.57-1.81A2.88,2.88,0,0,0,513.14,20.5Z" />
    <path d="M523.64,20.26l7.47.88-.17,1.45-5.84-.69-.54,4.49,5.35.63-.17,1.45-5.35-.63-.58,4.88,5.94.7-.17,1.45L522,34Z" />
    <path d="M545,24.6,540.75,24l-1.81,12.22L537.32,36l1.81-12.22-4.26-.63.22-1.44,10.13,1.5Z" />
    <path d="M549.81,23.94l1.61.28-2.34,13.61-1.61-.27Z" />
    <path d="M557.25,25.39c.51,0,1.08.05,1.73.12s1.24.17,1.77.27a7.17,7.17,0,0,1,1.66.53,3.93,3.93,0,0,1,1.29.92,3.29,3.29,0,0,1,.74,1.35,3.91,3.91,0,0,1,0,1.81,3.86,3.86,0,0,1-1.38,2.41,4.28,4.28,0,0,1-2.47.88l.79.9,2.31,6-1.87-.37-2.59-6.59L557.42,33l-1.21,6.14-1.61-.32Zm3.27,1.79-.53-.1a5.06,5.06,0,0,0-.52-.08l-.49-.06a1.58,1.58,0,0,0-.37,0l-1,5,1.51.3a3.64,3.64,0,0,0,2.34-.22,2.46,2.46,0,0,0,1.27-1.88,2.35,2.35,0,0,0-.37-1.87A2.88,2.88,0,0,0,560.52,27.18Z" />
    <path d="M571,28.06l7.33,1.68-.32,1.42-5.74-1.31-1,4.41,5.25,1.2-.33,1.42L571,35.68l-1.09,4.79,5.83,1.33-.33,1.43L568,41.53Z" />
    <path d="M592.7,38.09l.73-2-.1,0-1.21,1.64-5.07,5.11-.47-.13-2.09-7-.2-2-.1,0-.26,2.06-2.37,9-1.49-.39L583.6,31l1.18.32,2.37,7.93.24,1.66h0l1-1.37,5.79-5.74,1.24.33-3.53,13.35-1.59-.42Z" />
    <path d="M600.92,35.71l7.2,2.17-.42,1.4-5.63-1.7-1.31,4.33,5.16,1.55-.42,1.4-5.16-1.55L598.92,48l5.73,1.73-.42,1.4-7.3-2.2Z" />
    <path d="M614.06,44.81l-.37-2.23-.08,0-.45,2-2.87,8.56-1.46-.49,4.47-13.3.82.28,3.33,10.84.37,2.13.09,0,.4-1.87,2.87-8.53,1.46.49L618.17,56l-.83-.27Z" />
    <path d="M635.8,49l-4-1.5-4.31,11.58-1.53-.57L630.23,47l-4-1.5.51-1.37,9.6,3.57Z" />
    <path d="M646.41,51.85a9.46,9.46,0,0,1,1.58.41c.55.19,1.08.39,1.61.61a10,10,0,0,1,1.63.89A4.92,4.92,0,0,1,652.54,55a3.63,3.63,0,0,1,.65,1.69,4.1,4.1,0,0,1-.38,2.13,4.52,4.52,0,0,1-1.24,1.79,4.13,4.13,0,0,1-1.66.83,4.78,4.78,0,0,1-1.89,0A8.4,8.4,0,0,1,646.1,61l-.31-.13-.43-.19-.43-.22-.3-.16-2,4.83-1.51-.63Zm2.67,2.35c-.32-.13-.62-.26-.92-.37a3.26,3.26,0,0,0-.73-.2L645.2,58.9a.91.91,0,0,0,.28.17l.4.2.42.18.29.12a7.07,7.07,0,0,0,1.28.41,3.46,3.46,0,0,0,1.28,0,2.4,2.4,0,0,0,1.16-.53,3.42,3.42,0,0,0,.91-1.31,2.82,2.82,0,0,0,.24-1.37,2.41,2.41,0,0,0-.41-1.11,3.38,3.38,0,0,0-.86-.87A5.51,5.51,0,0,0,649.08,54.2Z" />
    <path d="M660.38,72.94,653,69.55,658.68,57l1.49.68L655,68.9,661,71.61Z" />
    <path d="M670.16,73.43l-4.55-2.22-2.92,2.84-1.47-.72L672.07,63l.68.33-1.44,14.92-1.56-.77Zm-3.45-3.26,3.63,1.77.47-4.45.48-2.09h0l-1.38,1.7Z" />
    <path d="M681,73.11V70.85l-.07,0-.76,1.86-4.22,8-1.36-.72,6.56-12.41.77.41,1.53,11.24,0,2.15.09,0,.69-1.78,4.21-8,1.36.72-6.56,12.41-.77-.41Z" />
    <path d="M694.59,80.49l.07-2.26-.07,0L693.77,80l-4.5,7.84-1.33-.77,7-12.17.75.43,1.15,11.29-.05,2.15.08,0,.76-1.75,4.48-7.81,1.33.77-7,12.17-.75-.43Z" />
    <path d="M708.55,83.15,710,84l-7.18,11.8-1.4-.85Z" />
    <path d="M714.56,92.49l.18-2.25-.07,0L713.76,92l-4.9,7.59-1.29-.83L715.17,87l.73.47.56,11.33-.16,2.14.08.06.85-1.71,4.87-7.57,1.3.84-7.61,11.79-.72-.47Z" />
    <path d="M728,104l3.81,2.64-3.46,5a3.91,3.91,0,0,1-.87-.07,6.14,6.14,0,0,1-1-.27,6.77,6.77,0,0,1-1-.42,7.32,7.32,0,0,1-.91-.55,6.75,6.75,0,0,1-1.76-1.73,5,5,0,0,1-.83-2.16,6.16,6.16,0,0,1,.23-2.55,9.93,9.93,0,0,1,1.44-2.88A8.8,8.8,0,0,1,726,98.64a6.45,6.45,0,0,1,2.45-1,5.62,5.62,0,0,1,2.35.11,6.33,6.33,0,0,1,2,.93,13.13,13.13,0,0,1,1.54,1.22,5.88,5.88,0,0,1,.87,1l-1.17,1a6.24,6.24,0,0,0-2-1.93,5.14,5.14,0,0,0-1.52-.7,3.86,3.86,0,0,0-1.76,0A5,5,0,0,0,727,100a7.58,7.58,0,0,0-1.87,2,8.57,8.57,0,0,0-1.16,2.27,5,5,0,0,0-.24,2,3.73,3.73,0,0,0,.59,1.68,5,5,0,0,0,1.33,1.34,4.38,4.38,0,0,0,2,.82l2.19-3.17-2.42-2.15Z" />
    <path d="M785.49,141.73l5.43,5.21-1,1.05-4.24-4.07-3.13,3.26,3.89,3.73-1,1.05-3.89-3.73-3.4,3.55,4.32,4.14-1,1.05-5.49-5.27Z" />
    <path d="M791.74,162.35a1.88,1.88,0,0,0,.62-1.3,4.7,4.7,0,0,0-.21-1.53,16.83,16.83,0,0,0-.58-1.68,8.13,8.13,0,0,1-.52-1.75,4.48,4.48,0,0,1,0-1.75,3.35,3.35,0,0,1,1-1.67,3.18,3.18,0,0,1,2.62-1,4.83,4.83,0,0,1,2.92,1.61A12.25,12.25,0,0,1,799,155a5.87,5.87,0,0,1,.76,1.41l-1.39.68a6.29,6.29,0,0,0-.63-1.25,8.46,8.46,0,0,0-1.25-1.56,2.8,2.8,0,0,0-1.78-1,1.79,1.79,0,0,0-1.44.5,1.77,1.77,0,0,0-.56,1.25,5,5,0,0,0,.21,1.52c.15.54.34,1.11.56,1.71A9.86,9.86,0,0,1,794,160a5,5,0,0,1,0,1.76,3.19,3.19,0,0,1-1,1.62,3.84,3.84,0,0,1-1.36.9,3.4,3.4,0,0,1-1.52.2,4.3,4.3,0,0,1-1.6-.5,6.6,6.6,0,0,1-1.58-1.21,10.58,10.58,0,0,1-1.56-1.91,6.52,6.52,0,0,1-.7-1.42l1.43-.63a6.72,6.72,0,0,0,.59,1.3,8.53,8.53,0,0,0,1.23,1.59,5.61,5.61,0,0,0,1,.78,2.78,2.78,0,0,0,1,.41,2.31,2.31,0,0,0,1,0A2.06,2.06,0,0,0,791.74,162.35Z" />
    <path d="M808.59,167.32l-2.93-3.15-9,8.42-1.12-1.2,9-8.42-2.93-3.15,1.07-1,7,7.5Z" />
    <path d="M808.51,180.07l-3.35-3.79-3.78,1.5-1.09-1.23,14-5.36.5.56-7,13.22-1.15-1.3Zm-1.94-4.34,2.68,3,2.14-3.93,1.24-1.76h0l-1.93,1Z" />
    <path d="M824.46,185.71l-2.76-3.3-9.48,7.93-1.05-1.26,9.48-7.93-2.76-3.3,1.12-.93,6.57,7.86Z" />
    <path d="M828.27,188.12l4.66,5.91-1.15.9-3.64-4.62-3.55,2.8,3.34,4.23-1.15.91L823.45,194l-3.86,3,3.7,4.7-1.14.9-4.72-6Z" />
    <path d="M840.49,204.3a9.89,9.89,0,0,1,1.14,1.18c.37.45.72.9,1,1.36a10.46,10.46,0,0,1,.93,1.6,5,5,0,0,1,.47,1.77,3.74,3.74,0,0,1-.33,1.78,4.19,4.19,0,0,1-1.43,1.62,4.52,4.52,0,0,1-2,.87,3.85,3.85,0,0,1-1.85-.15,5,5,0,0,1-1.63-.94,8.36,8.36,0,0,1-1.36-1.48l-.19-.26-.26-.4-.26-.4-.17-.3-4.26,3.06-1-1.33Zm1.06,3.4c-.2-.28-.4-.54-.59-.79a3.56,3.56,0,0,0-.52-.55l-4.65,3.34a1,1,0,0,0,.14.28l.25.38.26.38.18.25a7.15,7.15,0,0,0,.89,1,3.36,3.36,0,0,0,1.07.7,2.35,2.35,0,0,0,1.27.14,3.29,3.29,0,0,0,1.46-.64,2.86,2.86,0,0,0,.92-1,2.46,2.46,0,0,0,.23-1.16,3.4,3.4,0,0,0-.29-1.19A6,6,0,0,0,841.55,207.7Z" />
    <path d="M841.42,229.57l-4.58-6.77,11.45-7.74.91,1.36L839,223.34l3.66,5.41Z" />
    <path d="M849.53,235.1l-2.73-4.27-4,.91-.89-1.38,14.64-3.16.41.63-9,12-.93-1.47Zm-1.25-4.59,2.18,3.41,2.72-3.56,1.5-1.54h0l-2.06.73Z" />
    <path d="M859,240.49l1.17-1.93,0-.07-1.61,1.19-7.77,4.62-.79-1.32L862,235.8l.45.75-4.54,10.39-1.11,1.85.05.09,1.52-1.16,7.73-4.6.79,1.32-12.06,7.18-.44-.75Z" />
    <path d="M866.73,253.87,868,252l0-.07L866.27,253l-7.92,4.35-.74-1.35,12.3-6.76.42.77-4.9,10.23-1.17,1.81,0,.08,1.56-1.1,7.89-4.33.74,1.35-12.3,6.75-.42-.76Z" />
    <path d="M877.24,263.36l.76,1.46-12.28,6.33L865,269.7Z" />
    <path d="M877.49,274.46l1.34-1.83,0-.07-1.71,1-8.14,3.94-.67-1.39L880.91,270l.37.78-5.42,10-1.25,1.75,0,.09,1.61-1,8.1-3.92.67,1.38-12.63,6.11-.38-.78Z" />
    <path d="M883,291.32l1.87,4.24L879.3,298a3.87,3.87,0,0,1-.71-.52,6,6,0,0,1-.69-.73,7.93,7.93,0,0,1-.61-.87,7.66,7.66,0,0,1-.49-.94,6.63,6.63,0,0,1-.6-2.39,5,5,0,0,1,.42-2.28,5.88,5.88,0,0,1,1.53-2.05,10.24,10.24,0,0,1,2.72-1.71,8.64,8.64,0,0,1,3.22-.82,6.42,6.42,0,0,1,2.62.42,5.5,5.5,0,0,1,1.95,1.31,6.65,6.65,0,0,1,1.26,1.86,12.26,12.26,0,0,1,.67,1.84,6,6,0,0,1,.21,1.33l-1.5.21a6.29,6.29,0,0,0-.66-2.66,5.29,5.29,0,0,0-.93-1.39,3.91,3.91,0,0,0-1.47-1,5.24,5.24,0,0,0-2-.26,7.59,7.59,0,0,0-2.62.71,8.22,8.22,0,0,0-2.17,1.33,4.83,4.83,0,0,0-1.24,1.57,3.64,3.64,0,0,0-.37,1.74,5,5,0,0,0,.43,1.84,4.42,4.42,0,0,0,1.32,1.76l3.52-1.56-.94-3.1Z" />
    <path d="M914.26,361l.4,1.59-13.41,3.35-.39-1.59Z" />
    <path d="M912,371.88l1.71-1.48,0-.07-1.9.62-8.82,2-.34-1.5,13.7-3.05.19.85-7.56,8.46-1.63,1.41,0,.09,1.8-.62,8.79-1.95.33,1.5-13.7,3-.18-.85Z" />
    <path d="M910.7,388.91l-2,.86v0l2.19.11,9.9,1.52.31,1.61-14.76-2.54-.14-.71,12.8-7.84.33,1.76Z" />
    <path d="M921.78,396.91l1.18,7.42-1.44.23-.93-5.81-4.46.71.85,5.32-1.44.23-.85-5.32-4.85.77.94,5.91-1.45.23-1.19-7.52Z" />
    <path d="M914.31,417.12a1.88,1.88,0,0,0,1.28-.66,4.94,4.94,0,0,0,.76-1.34,17,17,0,0,0,.54-1.7,8.67,8.67,0,0,1,.65-1.7,4.7,4.7,0,0,1,1.07-1.39,3.36,3.36,0,0,1,1.81-.73,3.19,3.19,0,0,1,2.69.78,4.88,4.88,0,0,1,1.35,3.05,13.11,13.11,0,0,1,.11,2.2,5.92,5.92,0,0,1-.25,1.58l-1.52-.3a6.29,6.29,0,0,0,.26-1.37,8.56,8.56,0,0,0-.06-2,2.84,2.84,0,0,0-.83-1.86,1.81,1.81,0,0,0-1.44-.47,1.79,1.79,0,0,0-1.21.66,4.92,4.92,0,0,0-.75,1.34c-.21.52-.4,1.09-.59,1.7a9.28,9.28,0,0,1-.7,1.71A4.77,4.77,0,0,1,916.4,418a3.14,3.14,0,0,1-1.74.72,3.93,3.93,0,0,1-1.62-.1,3.41,3.41,0,0,1-1.34-.77,4.34,4.34,0,0,1-1-1.36,6.27,6.27,0,0,1-.53-1.92,10.66,10.66,0,0,1-.09-2.46,6.62,6.62,0,0,1,.3-1.55l1.52.36a6.5,6.5,0,0,0-.31,1.39,7.55,7.55,0,0,0,0,2,5.54,5.54,0,0,0,.29,1.2,2.85,2.85,0,0,0,.53.92,2.19,2.19,0,0,0,.8.56A1.92,1.92,0,0,0,914.31,417.12Z" />
    <path d="M924.74,431.28l-.43-4.28L912,428.25l-.17-1.63,12.29-1.25-.43-4.28,1.45-.15,1,10.19Z" />
    <path d="M922.77,446.38l2.08.06v-.1l-1.94-.62-6.46-3.16,0-.49,6-4.23,1.82-.83v-.1l-2,.42-9.28.62-.1-1.53,13.78-.94.08,1.23-6.75,4.78-1.5.76v0l1.61.5,7.29,3.64.09,1.28-13.79.93-.11-1.63Z" />
    <path d="M927.7,453.5l.17,7.51-1.47,0-.12-5.88-4.52.1.12,5.38-1.46,0-.12-5.38-4.91.11.13,6-1.46,0-.17-7.62Z" />
    <path d="M923.26,468.76l2-1.08v-.07l-2,.2-9,0V466.3l14-.05v.87l-9.2,6.65-1.89,1v.1l1.9-.23,9,0v1.54l-14,.05v-.87Z" />
    <path d="M926.27,490.71l.12-4.3L914,486.07l0-1.64,12.35.35.12-4.3,1.46,0-.28,10.24Z" />
    <path d="M927,501.64a10.49,10.49,0,0,1,.12,1.63c0,.58,0,1.15-.06,1.72a10,10,0,0,1-.31,1.83,5,5,0,0,1-.77,1.65,3.67,3.67,0,0,1-1.39,1.16,4.17,4.17,0,0,1-2.14.33,4.64,4.64,0,0,1-2.1-.6,4.13,4.13,0,0,1-1.32-1.31,4.89,4.89,0,0,1-.65-1.76,8.43,8.43,0,0,1-.09-2c0-.06,0-.17,0-.32s0-.31,0-.48l.06-.48c0-.15.05-.26.07-.33l-5.24-.37.12-1.64Zm-1.36,3.28c0-.34,0-.66.05-1a3.31,3.31,0,0,0-.05-.76l-5.71-.4a1.1,1.1,0,0,0-.07.31c0,.14,0,.29,0,.45s0,.31,0,.45,0,.25,0,.32a5.92,5.92,0,0,0,0,1.33,3.34,3.34,0,0,0,.38,1.23,2.35,2.35,0,0,0,.88.92,3.29,3.29,0,0,0,1.53.44A2.66,2.66,0,0,0,924,508a2.45,2.45,0,0,0,.93-.75,3.32,3.32,0,0,0,.54-1.1A5.86,5.86,0,0,0,925.66,504.92Z" />
    <path d="M911.57,521.65l.81-8.13,13.75,1.38-.17,1.63-12.29-1.23-.65,6.5Z" />
    <path d="M914.26,531.08l.64-5-3.63-1.84.2-1.62,13.27,6.94-.09.74-14.58,3.46.22-1.72Zm2-4.32-.51,4,4.37-1,2.13-.23v0l-2.06-.75Z" />
    <path d="M918.08,541.25l2.13-.74,0-.07-2-.12-8.93-1.42.24-1.52,13.86,2.2-.14.86-10.14,5.08-2,.72v.09l1.9.09,8.89,1.41-.24,1.52-13.86-2.2.14-.86Z" />
    <path d="M915.47,556.48l2.16-.67,0-.08-2-.18-8.87-1.73.3-1.51L920.85,555l-.17.85-10.31,4.73-2,.65,0,.09,1.9.15,8.83,1.72-.29,1.51L905,562l.16-.85Z" />
    <path d="M917.46,570.55l-.35,1.6-13.49-3,.36-1.6Z" />
    <path d="M910.56,579.22l2.19-.55,0-.08-2-.29L902,576.12l.37-1.5L916,578l-.21.84-10.54,4.19-2.09.53,0,.1,1.89.25,8.73,2.17-.37,1.5-13.62-3.4.21-.84Z" />
    <path d="M904,595.66l-1.27,4.46-5.84-1.67a3.22,3.22,0,0,1-.21-.84,5.6,5.6,0,0,1-.06-1,7.8,7.8,0,0,1,.08-1.06,9.81,9.81,0,0,1,.22-1,6.75,6.75,0,0,1,1.08-2.22,5,5,0,0,1,1.77-1.49,6.1,6.1,0,0,1,2.5-.6,10,10,0,0,1,3.19.44,8.73,8.73,0,0,1,3,1.43,6.33,6.33,0,0,1,1.74,2,5.63,5.63,0,0,1,.65,2.26,6.33,6.33,0,0,1-.22,2.23,13.07,13.07,0,0,1-.66,1.85,5.72,5.72,0,0,1-.69,1.15l-1.29-.79a6.3,6.3,0,0,0,1.2-2.47,4.9,4.9,0,0,0,.17-1.67,3.72,3.72,0,0,0-.51-1.67,5.19,5.19,0,0,0-1.4-1.51,7.57,7.57,0,0,0-2.47-1.13,8.39,8.39,0,0,0-2.52-.37,5,5,0,0,0-2,.41,3.88,3.88,0,0,0-1.4,1.11,5,5,0,0,0-.84,1.68,4.4,4.4,0,0,0-.11,2.2l3.7,1,1.26-3Z" />
    <path d="M895.5,641.82l-2.85,7-1.35-.56,2.23-5.44-4.18-1.72-2.05,5-1.35-.56,2-5-4.55-1.87-2.27,5.53-1.35-.55,2.89-7Z" />
    <path d="M890.53,653.73a7.33,7.33,0,0,1-.26.8q-.16.44-.36.9c-.13.31-.25.61-.38.91s-.24.57-.36.82a7.35,7.35,0,0,1-1.64,2.41,5.32,5.32,0,0,1-2.12,1.25,6.06,6.06,0,0,1-2.49.17,10,10,0,0,1-2.74-.8,9.5,9.5,0,0,1-2.3-1.44,6.37,6.37,0,0,1-1.62-2,5.7,5.7,0,0,1-.62-2.53,7,7,0,0,1,.7-3c.08-.19.2-.44.34-.74s.3-.62.46-.93l.45-.88a4,4,0,0,1,.32-.57Zm-2.71,2.87.23-.51c.08-.19.16-.37.23-.56s.13-.36.19-.51l.12-.37-10.09-4.51a2,2,0,0,0-.18.33c-.08.16-.17.33-.25.51l-.26.52-.16.34a5.15,5.15,0,0,0-.51,2.3,3.9,3.9,0,0,0,.55,1.89,5,5,0,0,0,1.35,1.48,9.19,9.19,0,0,0,1.85,1.09,8.88,8.88,0,0,0,1.87.6,5.18,5.18,0,0,0,1.92,0,4.14,4.14,0,0,0,1.76-.78A4.58,4.58,0,0,0,887.82,656.6Z" />
    <path d="M880.75,674.71l-.69,1.42-8.28-4a6.25,6.25,0,0,1-1.79-1.23,3.79,3.79,0,0,1-.93-1.49,3.64,3.64,0,0,1-.14-1.68,6,6,0,0,1,.57-1.81,5.43,5.43,0,0,1,2.62-2.83,4.26,4.26,0,0,1,3.56.36l8.56,4.18-.72,1.47-7.87-3.84a6.18,6.18,0,0,0-1.68-.59,2.76,2.76,0,0,0-1.32,0,2.35,2.35,0,0,0-1,.64,4.79,4.79,0,0,0-.81,1.22,2.74,2.74,0,0,0-.22,2.44,4.76,4.76,0,0,0,2.3,1.89Z" />
    <path d="M861.66,682.78a3.42,3.42,0,0,1,.14-1.62,10,10,0,0,1,.74-1.79,6.44,6.44,0,0,1,1.47-1.86,4.93,4.93,0,0,1,2-1.07,6.23,6.23,0,0,1,2.57-.1,9.59,9.59,0,0,1,3,1.08,9,9,0,0,1,2.66,2,6,6,0,0,1,1.31,2.26,5.42,5.42,0,0,1,.22,2.28,6.52,6.52,0,0,1-.67,2.11,11.63,11.63,0,0,1-1,1.65,6.18,6.18,0,0,1-.9,1l-1.11-1a6.11,6.11,0,0,0,1.68-2.17,4.33,4.33,0,0,0,.49-1.55,3.72,3.72,0,0,0-.2-1.7,4.75,4.75,0,0,0-1.09-1.7,8.13,8.13,0,0,0-2.18-1.58,7.83,7.83,0,0,0-2.36-.84,5.09,5.09,0,0,0-2,0,4.09,4.09,0,0,0-1.62.79,4.64,4.64,0,0,0-1.17,1.45,5.91,5.91,0,0,0-.57,1.46A3.94,3.94,0,0,0,863,683Z" />
    <path d="M859.42,693.43l2.5-4.41-2.66-3.08.81-1.43L869.71,696l-.37.66-14.8-2.34.86-1.52Zm3.47-3.25-2,3.52,4.42.74,2.06.6v0l-1.62-1.47Z" />
    <path d="M859.31,710.35l2.21-3.69-10.58-6.37.84-1.4,10.59,6.37,2.22-3.69,1.25.75-5.28,8.78Z" />
    <path d="M858.08,715l-.87,1.38L845.54,709l.87-1.38Z" />
    <path d="M848.58,717.09a8.32,8.32,0,0,1,3.59,4.17,5,5,0,0,1-.78,4.48,5.84,5.84,0,0,1-1.84,1.81,4.74,4.74,0,0,1-2.19.66,6.35,6.35,0,0,1-2.44-.39,11.68,11.68,0,0,1-2.62-1.35,8.3,8.3,0,0,1-3.58-4.18,5,5,0,0,1,.8-4.51,5.59,5.59,0,0,1,1.82-1.78,4.66,4.66,0,0,1,2.18-.66,6.53,6.53,0,0,1,2.44.4A11.48,11.48,0,0,1,848.58,717.09Zm-1,1.44a10.89,10.89,0,0,0-1.93-1,6.16,6.16,0,0,0-1.89-.42,3.78,3.78,0,0,0-1.71.31,3.29,3.29,0,0,0-1.36,1.2,3.42,3.42,0,0,0-.45,3.17,7.14,7.14,0,0,0,3,3.25,10.48,10.48,0,0,0,1.92,1,5.73,5.73,0,0,0,1.91.42,3.92,3.92,0,0,0,1.71-.32,3.27,3.27,0,0,0,1.37-1.21,3.35,3.35,0,0,0,.43-3.15A7.19,7.19,0,0,0,847.62,718.53Z" />
    <path d="M839.76,733.74l2.24.3,0-.06-1.73-1L833,727.68l.9-1.24,11.38,8.21-.51.7-11.34,0-2.14-.28-.06.08,1.67.93,7.29,5.27-.9,1.25-11.37-8.21.5-.71Z" />
    <path d="M831.25,752.88a9.86,9.86,0,0,1-.82,1.41q-.49.72-1,1.38a10.17,10.17,0,0,1-1.29,1.34,5,5,0,0,1-1.58.92,3.61,3.61,0,0,1-1.8.17,4.07,4.07,0,0,1-2-.94,4.43,4.43,0,0,1-1.38-1.68,4,4,0,0,1-.36-1.82,4.86,4.86,0,0,1,.47-1.83,8.46,8.46,0,0,1,1.05-1.71l.21-.25q.13-.18.3-.36c.11-.13.21-.25.32-.36l.24-.24-4.1-3.27,1-1.28Zm-3,1.94c.22-.27.41-.53.6-.78a3.33,3.33,0,0,0,.39-.65l-4.47-3.57a.89.89,0,0,0-.24.22c-.1.1-.19.22-.3.34s-.2.23-.29.35l-.19.24a7.09,7.09,0,0,0-.74,1.13,3.61,3.61,0,0,0-.38,1.22,2.56,2.56,0,0,0,.21,1.26,3.31,3.31,0,0,0,1,1.23,2.79,2.79,0,0,0,1.24.6,2.39,2.39,0,0,0,1.19-.09,3.69,3.69,0,0,0,1.07-.6A5.82,5.82,0,0,0,828.27,754.82Z" />
    <path d="M807.18,760.64l5.27-6.24L823,763.31,822,764.56l-9.44-8-4.21,5Z" />
    <path d="M804.08,769.93l3.36-3.78-2-3.57,1.09-1.23,7,13.23-.5.56-14-5.4,1.16-1.29Zm4.07-2.44-2.69,3,4.16,1.65,1.89,1h0l-1.27-1.79Z" />
    <path d="M801.46,780.49l2.18.6.05-.06-1.58-1.23-6.56-6.21,1.06-1.12,10.18,9.65-.6.63L795,781.21l-2.09-.56-.06.07,1.52,1.15,6.53,6.19-1.06,1.12-10.18-9.66.6-.63Z" />
    <path d="M790.69,791.59l2.16.67,0,0-1.54-1.28L785,784.49l1.1-1.08,9.85,10-.62.61-11.18-1.92-2.06-.63-.07.07,1.48,1.19,6.32,6.41-1.1,1.08-9.85-10,.62-.61Z" />
    <path d="M784.41,804.29l-1.19,1.12-9.44-10.08,1.19-1.12Z" />
    <path d="M773.79,807.57l2.12.79.06-.06-1.47-1.36-6-6.75,1.15-1L779,809.65l-.65.58-11.07-2.5-2-.73-.07.07,1.42,1.27,6,6.72-1.15,1-9.32-10.49.65-.58Z" />
    <path d="M759.1,817.42l-3.57,3-3.89-4.68a5,5,0,0,1,.31-.82,5.89,5.89,0,0,1,.51-.86,10.14,10.14,0,0,1,.67-.83,10.34,10.34,0,0,1,.77-.73,6.71,6.71,0,0,1,2.14-1.22,5,5,0,0,1,2.31-.23,6.15,6.15,0,0,1,2.39.91,10,10,0,0,1,2.39,2.16A8.7,8.7,0,0,1,764.8,817a6.32,6.32,0,0,1,.31,2.63,5.49,5.49,0,0,1-.73,2.24,6.56,6.56,0,0,1-1.45,1.72,11.93,11.93,0,0,1-1.58,1.15,6.06,6.06,0,0,1-1.22.56l-.62-1.38a6.16,6.16,0,0,0,2.38-1.37,5,5,0,0,0,1.09-1.27,3.64,3.64,0,0,0,.51-1.68,5,5,0,0,0-.3-2,7.6,7.6,0,0,0-1.39-2.33,8.7,8.7,0,0,0-1.88-1.73,5.08,5.08,0,0,0-1.85-.76,3.83,3.83,0,0,0-1.78.12,4.88,4.88,0,0,0-1.64.92,4.37,4.37,0,0,0-1.33,1.75l2.46,3,2.72-1.75Z" />
    <path d="M713.34,859l-1.39.87-7.29-11.74,1.39-.87Z" />
    <path d="M702.32,860.09l1.93,1.18.07,0-1.18-1.62-4.57-7.8,1.33-.78L707,863.14l-.75.44L695.88,859,694,857.85l-.09,0,1.15,1.52,4.54,7.77-1.33.78-7.09-12.11.75-.44Z" />
    <path d="M683,864.67a1.9,1.9,0,0,0,1.08,1,5.23,5.23,0,0,0,1.53.22,15.75,15.75,0,0,0,1.77-.1,8,8,0,0,1,1.83,0,4.26,4.26,0,0,1,1.67.5,3.31,3.31,0,0,1,1.34,1.42,3.22,3.22,0,0,1,.24,2.79,4.88,4.88,0,0,1-2.36,2.36,12.67,12.67,0,0,1-2,.89,6.12,6.12,0,0,1-1.57.34l-.26-1.52a6.86,6.86,0,0,0,1.37-.26,9,9,0,0,0,1.84-.77,2.91,2.91,0,0,0,1.44-1.45,1.76,1.76,0,0,0-.08-1.51,1.79,1.79,0,0,0-1-.89,4.81,4.81,0,0,0-1.52-.22c-.56,0-1.16,0-1.8.07a10.34,10.34,0,0,1-1.85,0,4.83,4.83,0,0,1-1.68-.51,3.18,3.18,0,0,1-1.3-1.36,3.78,3.78,0,0,1-.49-1.56,3.42,3.42,0,0,1,.23-1.51,4.39,4.39,0,0,1,.92-1.41,6.58,6.58,0,0,1,1.61-1.18,10.77,10.77,0,0,1,2.25-1,6.62,6.62,0,0,1,1.56-.28l.22,1.55a6.63,6.63,0,0,0-1.42.21,7.58,7.58,0,0,0-1.86.74,5.55,5.55,0,0,0-1,.7,2.88,2.88,0,0,0-.67.84,2,2,0,0,0-.23.94A2,2,0,0,0,683,864.67Z" />
    <path d="M675,880.37l-1.41.71-4.16-8.23a6.22,6.22,0,0,1-.67-2.07,3.83,3.83,0,0,1,.15-1.74,3.72,3.72,0,0,1,.91-1.42,6.06,6.06,0,0,1,1.55-1.1,5.44,5.44,0,0,1,3.79-.67,4.24,4.24,0,0,1,2.63,2.43l4.29,8.51-1.46.74-4-7.82a6.51,6.51,0,0,0-1-1.49,2.75,2.75,0,0,0-1.08-.75,2.34,2.34,0,0,0-1.21-.11,4.9,4.9,0,0,0-1.39.48,2.75,2.75,0,0,0-1.65,1.81,4.85,4.85,0,0,0,.69,2.9Z" />
    <path d="M668.43,883.42a16.8,16.8,0,0,1-1.47.92c-.57.32-1.1.6-1.59.83a7.57,7.57,0,0,1-1.65.54,3.83,3.83,0,0,1-1.58,0,3.38,3.38,0,0,1-1.4-.65,3.87,3.87,0,0,1-1.09-1.45,3.78,3.78,0,0,1-.3-2.76,4.27,4.27,0,0,1,1.47-2.17l-1.16-.26-5.42-3.51,1.74-.81,6,3.8,1.88-.54-2.64-5.68,1.49-.69Zm-3.69.47.48-.22.47-.24.43-.24a2.45,2.45,0,0,0,.3-.21l-2.14-4.62-1.4.65a3.63,3.63,0,0,0-1.76,1.56,2.44,2.44,0,0,0,.08,2.27,2.32,2.32,0,0,0,1.4,1.28A2.8,2.8,0,0,0,664.74,883.89Z" />
    <path d="M646.25,882.57l4.66-2-.25-4.06,1.5-.64.73,15-.69.3L641.85,880.3l1.59-.69Zm4.73-.48-3.72,1.59,3.07,3.26,1.27,1.73h0l-.39-2.15Z" />
    <path d="M639.38,891l1.72,1.47.07,0-.91-1.79L637,882.26l1.43-.56,5.11,13.06-.8.32-9.52-6.18-1.64-1.39-.1,0,.9,1.69,3.27,8.38-1.43.56-5.11-13.07.81-.32Z" />
    <path d="M616.13,890.61a3.58,3.58,0,0,1,1.2-1.1,10.56,10.56,0,0,1,1.76-.81,6.18,6.18,0,0,1,2.34-.38,5.1,5.1,0,0,1,2.22.59,6.22,6.22,0,0,1,2,1.66,9.91,9.91,0,0,1,1.52,2.87,9,9,0,0,1,.6,3.27,6.45,6.45,0,0,1-.56,2.54,5.45,5.45,0,0,1-1.4,1.83,6.18,6.18,0,0,1-1.91,1.09,11.86,11.86,0,0,1-1.87.53,6.43,6.43,0,0,1-1.32.1l-.12-1.51a6.16,6.16,0,0,0,2.71-.45,4.77,4.77,0,0,0,1.41-.82,3.73,3.73,0,0,0,1-1.38,5,5,0,0,0,.36-2,8.49,8.49,0,0,0-.54-2.64,8,8,0,0,0-1.17-2.22,5.13,5.13,0,0,0-1.51-1.35,4,4,0,0,0-1.73-.52,4.74,4.74,0,0,0-1.84.28,5.89,5.89,0,0,0-1.4.69,3.76,3.76,0,0,0-.9.8Z" />
    <path d="M616.1,904.57,609,906.88l-.45-1.4,5.6-1.8-1.39-4.3L607.58,901l-.44-1.39,5.13-1.65-1.51-4.68-5.69,1.84-.45-1.4,7.25-2.33Z" />
    <path d="M596.68,910.37a9.4,9.4,0,0,1-1.5.65c-.55.2-1.09.36-1.64.51a9.71,9.71,0,0,1-1.83.32,5,5,0,0,1-1.82-.18,3.73,3.73,0,0,1-1.55-.93,4.29,4.29,0,0,1-1-1.91,4.59,4.59,0,0,1-.12-2.18A4,4,0,0,1,588,905a4.91,4.91,0,0,1,1.45-1.21,8.42,8.42,0,0,1,1.86-.75l.32-.08c.14-.05.3-.08.46-.12l.47-.1.34-.05-1.38-5.06,1.58-.44Zm-3.55-.2,1-.27a3.34,3.34,0,0,0,.69-.3l-1.5-5.52a.83.83,0,0,0-.32,0l-.44.09-.44.11-.31.09a7,7,0,0,0-1.25.47,3.45,3.45,0,0,0-1,.76,2.48,2.48,0,0,0-.58,1.14,3.29,3.29,0,0,0,.1,1.59,2.77,2.77,0,0,0,.65,1.23,2.47,2.47,0,0,0,1,.62,3.44,3.44,0,0,0,1.21.15A5.91,5.91,0,0,0,593.13,910.17Z" />
    <path d="M572.65,902.41l7.94-1.92,3.24,13.43-1.59.39-2.9-12L573,903.83Z" />
    <path d="M564.66,908.07l5-1.06.54-4,1.6-.35-2.16,14.82-.73.16L560.78,905l1.69-.36Zm4.73.44-3.95.85,2.38,3.79.92,1.94h0l0-2.18Z" />
    <path d="M556.31,915l1.41,1.78.08,0-.55-1.92-1.62-8.9,1.52-.27,2.5,13.8-.85.16-8.15-7.89-1.35-1.68h-.1l.55,1.83,1.61,8.85-1.51.28-2.51-13.81.86-.15Z" />
    <path d="M541.09,917.61l1.34,1.82h.08l-.49-1.95-1.3-8.94,1.52-.22,2,13.88-.86.13-7.88-8.17-1.28-1.72h-.1l.49,1.84,1.3,8.91-1.52.22-2-13.88.86-.13Z" />
    <path d="M528.47,924.15l-1.63.19-1.64-13.71,1.63-.2Z" />
    <path d="M518,920.51l1.24,1.88h.08l-.38-2-.85-9,1.54-.14,1.31,14-.86.09-7.45-8.56-1.2-1.79h-.1l.4,1.86.84,9-1.53.15-1.32-14,.87-.08Z" />
    <path d="M500.31,919.76l-4.62.28-.38-6.07a3.94,3.94,0,0,1,.74-.48,5.91,5.91,0,0,1,.92-.39,8.17,8.17,0,0,1,1-.27,7.92,7.92,0,0,1,1.05-.13,6.53,6.53,0,0,1,2.45.27,5,5,0,0,1,2,1.18,6.17,6.17,0,0,1,1.4,2.15,10.44,10.44,0,0,1,.65,3.16,8.69,8.69,0,0,1-.36,3.3,6.18,6.18,0,0,1-1.3,2.3,5.46,5.46,0,0,1-1.91,1.38,6.63,6.63,0,0,1-2.18.53,13.88,13.88,0,0,1-2,0,6,6,0,0,1-1.32-.27l.32-1.48a6.16,6.16,0,0,0,2.73.31,5.31,5.31,0,0,0,1.63-.39,3.81,3.81,0,0,0,1.41-1,5.22,5.22,0,0,0,.95-1.82,7.51,7.51,0,0,0,.25-2.71,8.4,8.4,0,0,0-.49-2.5,4.85,4.85,0,0,0-1-1.7,3.68,3.68,0,0,0-1.5-1,4.79,4.79,0,0,0-1.87-.23,4.37,4.37,0,0,0-2.11.62l.23,3.84,3.24.2Z" />
    <path d="M424.31,911.66a3.58,3.58,0,0,1,1.55-.48,9.69,9.69,0,0,1,1.94,0,6.34,6.34,0,0,1,2.28.65,5.22,5.22,0,0,1,1.76,1.48,6.19,6.19,0,0,1,1.06,2.33,9.67,9.67,0,0,1,.15,3.24,9,9,0,0,1-.84,3.22,6.12,6.12,0,0,1-1.59,2.06,5.19,5.19,0,0,1-2,1.06,6.3,6.3,0,0,1-2.2.18,11.56,11.56,0,0,1-1.91-.32,5.86,5.86,0,0,1-1.24-.47l.53-1.41a6.28,6.28,0,0,0,2.65.73,4.45,4.45,0,0,0,1.62-.13,3.73,3.73,0,0,0,1.5-.83,4.9,4.9,0,0,0,1.16-1.65,8.31,8.31,0,0,0,.64-2.61,8.15,8.15,0,0,0-.11-2.51,5.4,5.4,0,0,0-.8-1.87,4.07,4.07,0,0,0-1.35-1.2,4.56,4.56,0,0,0-1.78-.53,6.15,6.15,0,0,0-1.56,0,4.29,4.29,0,0,0-1.16.35Z" />
    <path d="M411.05,915.81l6.58.86.82-6.28,1.63.21-1.8,13.7-1.62-.22.78-6-6.58-.86-.78,6-1.62-.21,1.79-13.7,1.63.21Z" />
    <path d="M398,911.25l5,.82,2-3.55,1.62.27-7.44,13-.74-.12-2.9-14.7,1.71.29Zm4.24,2.14-4-.65.83,4.39.15,2.15h0l.82-2Z" />
    <path d="M389.22,919.7a14.39,14.39,0,0,1-1.73-.12c-.65-.07-1.24-.16-1.77-.26a7.32,7.32,0,0,1-1.66-.53,3.93,3.93,0,0,1-1.29-.92,3.42,3.42,0,0,1-.75-1.35,4.36,4.36,0,0,1,1.36-4.22,4.25,4.25,0,0,1,2.46-.88l-.79-.9-2.32-6,1.88.37,2.59,6.58,1.84.67,1.21-6.14,1.61.31ZM386,917.91l.53.11.52.08.49,0a2.57,2.57,0,0,0,.36,0l1-5-1.51-.3a3.63,3.63,0,0,0-2.34.23,2.46,2.46,0,0,0-1.28,1.88,2.35,2.35,0,0,0,.38,1.87A2.83,2.83,0,0,0,386,917.91Z" />
    <path d="M375.15,917l-1.6-.36,3-13.48,1.6.35Z" />
    <path d="M359.42,911.74l4.18,1,2.95-12,1.59.39-2.95,12,4.18,1-.35,1.42-9.95-2.45Z" />
    <path d="M352.54,901l4.89,1.35,2.34-3.33,1.58.43-8.76,12.15-.73-.2-1.34-14.92,1.68.46Zm4,2.58-3.9-1.08L353,907l-.08,2.15h0l1-1.93Z" />
    <path d="M335.87,903.18a3.56,3.56,0,0,1,.45-.92,3.33,3.33,0,0,1,.73-.77,3.37,3.37,0,0,1,1-.51,4.3,4.3,0,0,1,1.27-.15l0-.07a5,5,0,0,1-1-.66,3.18,3.18,0,0,1-.73-.9,3.33,3.33,0,0,1-.34-1.16,3.41,3.41,0,0,1,.17-1.41,3.74,3.74,0,0,1,1-1.64,3.83,3.83,0,0,1,1.49-.87,5.27,5.27,0,0,1,1.79-.21,7.49,7.49,0,0,1,1.88.33l.76.23c.29.09.59.19.89.31s.62.24.92.36a6.41,6.41,0,0,1,.79.4l-4,13c-.49-.07-1.05-.18-1.69-.32s-1.31-.32-2-.54a9.92,9.92,0,0,1-1.46-.59,4,4,0,0,1-1.24-.9,3.13,3.13,0,0,1-.73-1.28A3.06,3.06,0,0,1,335.87,903.18Zm6.28-1.12-.79-.22a7.33,7.33,0,0,0-.77-.18,5,5,0,0,0-1,.11,3.35,3.35,0,0,0-.86.29,2.24,2.24,0,0,0-.7.52,2.12,2.12,0,0,0-.44.79,2,2,0,0,0-.08,1.1,2,2,0,0,0,.43.85,2.8,2.8,0,0,0,.8.62,5.2,5.2,0,0,0,1,.43c.42.13.8.23,1.15.32a5.9,5.9,0,0,0,.81.16l1.38-4.49Zm.86-6.51a5.05,5.05,0,0,0-1.21-.22,3,3,0,0,0-1.14.15,2.48,2.48,0,0,0-1.58,2.88,2.36,2.36,0,0,0,.58,1,3.71,3.71,0,0,0,1,.7,9.64,9.64,0,0,0,1.22.48l1.64.51L345,896.3a2.06,2.06,0,0,0-.36-.17l-.52-.2-.57-.21Z" />
    <path d="M326.46,888.79l7.73,2.63-4.45,13.08-1.55-.53,4-11.69L326,890.17Z" />
    <path d="M318,900.41l-7-2.62.51-1.37,5.51,2.05,1.58-4.24-5.05-1.88L314,891l5,1.88,1.71-4.6-5.61-2.09.51-1.37,7.14,2.66Z" />
    <path d="M297.45,884.86l-4.26-1.81,2.38-5.6a4.34,4.34,0,0,1,.87-.1,8.64,8.64,0,0,1,1,.06,7.71,7.71,0,0,1,1,.22,8.35,8.35,0,0,1,1,.35,7,7,0,0,1,2.07,1.34,5,5,0,0,1,1.25,1.95,6.15,6.15,0,0,1,.29,2.55,10.18,10.18,0,0,1-.83,3.11,8.83,8.83,0,0,1-1.79,2.8,6.52,6.52,0,0,1-2.2,1.48,5.68,5.68,0,0,1-2.32.37,6.62,6.62,0,0,1-2.19-.51,11.28,11.28,0,0,1-1.75-.88,5.75,5.75,0,0,1-1.06-.83l.95-1.18a6.25,6.25,0,0,0,2.3,1.5,5.18,5.18,0,0,0,1.63.38,3.66,3.66,0,0,0,1.73-.31,5.23,5.23,0,0,0,1.67-1.19,7.63,7.63,0,0,0,1.43-2.31,8.4,8.4,0,0,0,.68-2.46,4.76,4.76,0,0,0-.17-2,3.76,3.76,0,0,0-.92-1.53,4.79,4.79,0,0,0-1.56-1,4.37,4.37,0,0,0-2.17-.39L295,882.39l2.81,1.62Z" />
    <path d="M285.58,887.21l-1.49-.68L289.81,874l1.49.67Z" />
    <path d="M279.57,873.92l.48-2.1h0l-1.39,1.69-7.12,7.06-1.47-.72,10.82-10.35.66.32-1.32,14.95-1.62-.78Z" />
    <path d="M266.32,877.93l-1.46-.75,6.31-12.29,1.46.75Z" />
    <path d="M259.66,869.05l0,2.26.07,0,.78-1.84,4.33-7.93,1.36.74-6.73,12.31-.77-.41L257.3,863v-2.16l-.09,0-.71,1.76-4.32,7.9-1.35-.74,6.73-12.31.76.41Z" />
    <path d="M245.42,858.53l-4-2.36,3.09-5.24a3.77,3.77,0,0,1,.88,0,5.84,5.84,0,0,1,1,.19,7.55,7.55,0,0,1,1,.35,9.16,9.16,0,0,1,.94.48,6.56,6.56,0,0,1,1.88,1.6,5,5,0,0,1,1,2.09,6.18,6.18,0,0,1-.05,2.56,9.88,9.88,0,0,1-1.23,3,8.63,8.63,0,0,1-2.14,2.54,6.27,6.27,0,0,1-2.37,1.18,5.5,5.5,0,0,1-2.35.07,6.53,6.53,0,0,1-2.11-.79,11.59,11.59,0,0,1-1.61-1.1,5.68,5.68,0,0,1-1-1l1.1-1a6.13,6.13,0,0,0,2.09,1.79,5.14,5.14,0,0,0,1.56.59,3.86,3.86,0,0,0,1.75-.08,5.06,5.06,0,0,0,1.82-1,7.56,7.56,0,0,0,1.72-2.1,8.6,8.6,0,0,0,1-2.35,4.86,4.86,0,0,0,.09-2,3.61,3.61,0,0,0-.71-1.64,4.76,4.76,0,0,0-1.42-1.24,4.32,4.32,0,0,0-2.09-.66l-2,3.31,2.57,2Z" />
    <path d="M147.51,788.36l3,3,8.76-8.71,1.16,1.17-8.77,8.7,3,3-1,1-7.22-7.27Z" />
    <path d="M147.18,775.61l3.48,3.69,3.73-1.62,1.12,1.19-13.8,5.81-.52-.55,6.62-13.44L149,772Zm2.08,4.28-2.77-2.95-2,4-1.18,1.79v0l1.89-1.11Z" />
    <path d="M138.18,770.47l-2.29,7.65-1.31-1.48,1.65-5.2.51-1.11-1.16.39-5.46.89-1.21-1.36,7.86-1.17,2.35-8.15,1.27,1.44L138.75,768l-.53,1.18,1.23-.4,5.82-.9,1.22,1.38Z" />
    <path d="M121.59,761.33a8.77,8.77,0,0,1-1.2-1.11c-.4-.42-.77-.85-1.13-1.29a9.89,9.89,0,0,1-1-1.55,5.09,5.09,0,0,1-.57-1.74,3.71,3.71,0,0,1,.22-1.79,4.15,4.15,0,0,1,1.34-1.7,4.57,4.57,0,0,1,2-1,3.85,3.85,0,0,1,1.85.05,4.74,4.74,0,0,1,1.68.84,8.28,8.28,0,0,1,1.44,1.4l.21.26.29.37.28.39a2.65,2.65,0,0,1,.18.29l4.08-3.3,1,1.27ZM120.34,758l.64.76a3.58,3.58,0,0,0,.54.52l4.45-3.6a.94.94,0,0,0-.16-.28,4.22,4.22,0,0,0-.27-.36l-.27-.36c-.1-.11-.16-.2-.2-.25a7,7,0,0,0-.94-.95,3.45,3.45,0,0,0-1.11-.64,2.5,2.5,0,0,0-1.28-.07,3.3,3.3,0,0,0-1.41.73,2.72,2.72,0,0,0-.86,1.08,2.41,2.41,0,0,0-.17,1.18,3.35,3.35,0,0,0,.35,1.17A6.53,6.53,0,0,0,120.34,758Z" />
    <path d="M119.22,736.17l5,6.49-11,8.38-1-1.3,9.82-7.49-4-5.2Z" />
    <path d="M110.82,731.13l3,4.11,3.91-1.13,1,1.32-14.43,4-.44-.6,8.29-12.49,1,1.41Zm1.51,4.51L110,732.36l-2.51,3.71L106,737.69v0l2-.85Z" />
    <path d="M101.08,726.29l-1.06,2,0,.07,1.55-1.28,7.48-5.06.87,1.27-11.63,7.86-.49-.72,3.94-10.64,1-1.91-.06-.08L101.27,719l-7.45,5L93,722.8l11.63-7.86.49.72Z" />
    <path d="M92.58,713.39l-1.13,2,0,.07,1.59-1.23,7.66-4.8.82,1.31-11.89,7.45-.47-.74,4.3-10.5L94.56,705l0-.08L93,706.15l-7.63,4.78-.81-1.31,11.89-7.45.46.73Z" />
    <path d="M81.51,704.48l-.83-1.41,11.89-7,.83,1.41Z" />
    <path d="M80.62,693.42l-1.22,1.9,0,.07,1.64-1.14,7.9-4.4.75,1.35L77.47,698l-.42-.76L81.89,687,83,685.19,83,685.1l-1.55,1.11-7.86,4.38-.75-1.35,12.26-6.82.42.76Z" />
    <path d="M74.19,676.92l-2.12-4.12L77.48,670a3.87,3.87,0,0,1,.73.47,8.09,8.09,0,0,1,1.94,2.44,6.66,6.66,0,0,1,.73,2.35,5,5,0,0,1-.28,2.3,6.3,6.3,0,0,1-1.41,2.14,10,10,0,0,1-2.63,1.86,8.62,8.62,0,0,1-3.16,1,6.2,6.2,0,0,1-2.63-.27,5.32,5.32,0,0,1-2-1.2,6.39,6.39,0,0,1-1.36-1.78,12.23,12.23,0,0,1-.78-1.8,5.76,5.76,0,0,1-.29-1.32l1.49-.29a6.33,6.33,0,0,0,.81,2.62,5.15,5.15,0,0,0,1,1.33,3.76,3.76,0,0,0,1.52.87,5.22,5.22,0,0,0,2,.15,7.88,7.88,0,0,0,2.58-.86,8.33,8.33,0,0,0,2.09-1.46A4.88,4.88,0,0,0,79,677a3.83,3.83,0,0,0,.27-1.77,5,5,0,0,0-.54-1.8,4.35,4.35,0,0,0-1.42-1.68l-3.42,1.76,1.12,3Z" />
    <path d="M45.26,583.25a3.43,3.43,0,0,1,1,1.29,10.26,10.26,0,0,1,.68,1.82,6.35,6.35,0,0,1,.2,2.36,5.14,5.14,0,0,1-.76,2.16,6.26,6.26,0,0,1-1.81,1.82,9.71,9.71,0,0,1-3,1.29,9.1,9.1,0,0,1-3.31.35,6.22,6.22,0,0,1-2.5-.76,5.26,5.26,0,0,1-1.71-1.53,6.27,6.27,0,0,1-.94-2,11.49,11.49,0,0,1-.38-1.9,5.88,5.88,0,0,1,0-1.33h1.51a6.1,6.1,0,0,0,.25,2.73,4.42,4.42,0,0,0,.7,1.47,3.61,3.61,0,0,0,1.3,1.11,5.08,5.08,0,0,0,2,.51,8.11,8.11,0,0,0,2.66-.34,7.45,7.45,0,0,0,2.31-1,5.08,5.08,0,0,0,1.47-1.4,4.06,4.06,0,0,0,.64-1.69,4.5,4.5,0,0,0-.13-1.85,6.17,6.17,0,0,0-.57-1.45,4.3,4.3,0,0,0-.73-1Z" />
    <path d="M39.65,574l1.18,4.93,4,.44.38,1.6-14.86-1.83-.17-.73L42.65,570l.4,1.69Zm-.32,4.74-.94-3.94-3.74,2.47-1.92,1v0h2.19Z" />
    <path d="M37.16,561a2,2,0,0,0-1.23.76,5,5,0,0,0-.65,1.4c-.16.54-.3,1.11-.42,1.73a8.41,8.41,0,0,1-.51,1.75,4.49,4.49,0,0,1-1,1.46,3.37,3.37,0,0,1-1.74.87,3.19,3.19,0,0,1-2.74-.58,4.81,4.81,0,0,1-1.58-2.94,11.08,11.08,0,0,1-.27-2.18,5.62,5.62,0,0,1,.13-1.6l1.53.18a6,6,0,0,0-.15,1.4,9,9,0,0,0,.2,2,2.89,2.89,0,0,0,1,1.8,1.8,1.8,0,0,0,1.48.35,1.74,1.74,0,0,0,1.15-.74,4.9,4.9,0,0,0,.65-1.4c.16-.53.32-1.11.46-1.73a9.8,9.8,0,0,1,.57-1.76,4.76,4.76,0,0,1,1-1.47,3.2,3.2,0,0,1,1.68-.85,3.9,3.9,0,0,1,1.63,0,3.33,3.33,0,0,1,1.38.66,4.32,4.32,0,0,1,1.08,1.29,6.5,6.5,0,0,1,.67,1.88,10.84,10.84,0,0,1,.28,2.44,6.77,6.77,0,0,1-.19,1.57L40,567a6.22,6.22,0,0,0,.2-1.42,7.48,7.48,0,0,0-.17-2,5.17,5.17,0,0,0-.37-1.17,2.61,2.61,0,0,0-.61-.88,2.12,2.12,0,0,0-.84-.5A1.94,1.94,0,0,0,37.16,561Z" />
    <path d="M31.73,547.22l1.15,6.53,6.24-1.1.28,1.62-13.6,2.39L25.52,555l5.92-1-1.14-6.53-5.93,1-.29-1.61,13.61-2.39.29,1.61Z" />
    <path d="M22.17,534l-1-7.46,1.45-.18.75,5.83,4.68-.6-.7-5.44,1.45-.18.7,5.44,6.12-.78.21,1.62Z" />
    <path d="M33.6,512.12l.81,8.13-13.74,1.37L20.5,520l12.3-1.23-.66-6.5Z" />
    <path d="M26.52,510.56a8.36,8.36,0,0,1-5.39-1.07,5,5,0,0,1-2.14-4,5.74,5.74,0,0,1,.33-2.55A4.76,4.76,0,0,1,20.64,501a6.3,6.3,0,0,1,2.17-1.19,11.77,11.77,0,0,1,2.9-.55,8.34,8.34,0,0,1,5.39,1.09,5,5,0,0,1,2.14,4.05,5.67,5.67,0,0,1-.33,2.53,4.77,4.77,0,0,1-1.32,1.85,6.39,6.39,0,0,1-2.17,1.2A12.26,12.26,0,0,1,26.52,510.56Zm-.12-1.73a10.49,10.49,0,0,0,2.15-.38,6,6,0,0,0,1.75-.83,3.76,3.76,0,0,0,1.15-1.3,3.24,3.24,0,0,0,.34-1.78,3.4,3.4,0,0,0-1.6-2.77,7.1,7.1,0,0,0-4.35-.73,9.87,9.87,0,0,0-2.14.38,5.85,5.85,0,0,0-1.76.83,3.78,3.78,0,0,0-1.15,1.31,3.22,3.22,0,0,0-.34,1.8A3.31,3.31,0,0,0,22,508.1,7.15,7.15,0,0,0,26.4,508.83Z" />
    <path d="M27.65,492l2.29-.36v0l-2.34-.29-9.28-2.63v-.8l9.19-3.06,2.28-.39v0l-2.34-.31L18.18,482l0-1.58L32.26,484l0,.91-9.2,3-2.08.4v.1l2.12.31,9.3,2.6,0,.91-13.95,4.25,0-1.74Z" />
    <path d="M22.74,458.93l-2.06-.24v.1l1.88.79,6.17,3.71v.49l-6.33,3.69-1.89.67v.1l2.06-.23,9.29.18,0,1.53L18,469.46l0-1.22,7.15-4.19,1.55-.62v0l-1.56-.64-6.95-4.26,0-1.29,13.81.27,0,1.64Z" />
    <path d="M28.81,445.49l-.28,5.06,3.75,1.58-.09,1.63-13.73-6,.05-.75,14.29-4.48-.09,1.73Zm-1.67,4.45.22-4-4.28,1.3-2.11.38v0l2.1.61Z" />
    <path d="M24.28,435.62l-2.08.89v.08l2,0,9,.78-.13,1.53-14-1.2.07-.87L28.91,431l2-.86v-.1L29,430.1l-9-.77.13-1.54,14,1.21-.07.87Z" />
    <path d="M31.45,416.79l-.6,5,3.64,1.82-.2,1.63L21,418.41l.09-.74,14.55-3.55-.2,1.72Zm-1.95,4.34.48-4-4.35,1-2.14.23v0l2.06.73Z" />
    <path d="M30,405.34l.68-4.59,6,.9a4.12,4.12,0,0,1,.31.82,6,6,0,0,1,.19,1,6.18,6.18,0,0,1,.05,1.06,7.23,7.23,0,0,1-.08,1.06,6.82,6.82,0,0,1-.78,2.33,5,5,0,0,1-1.58,1.7,5.89,5.89,0,0,1-2.39.92,10,10,0,0,1-3.22,0,8.77,8.77,0,0,1-3.16-1,6.44,6.44,0,0,1-2-1.76,5.49,5.49,0,0,1-.94-2.15,6.57,6.57,0,0,1-.06-2.25,11.48,11.48,0,0,1,.41-1.91,5.82,5.82,0,0,1,.54-1.24l1.38.63a6.11,6.11,0,0,0-.87,2.6,4.94,4.94,0,0,0,0,1.67,3.8,3.8,0,0,0,.73,1.6A5.12,5.12,0,0,0,26.82,408a7.6,7.6,0,0,0,2.59.81,8.15,8.15,0,0,0,2.55,0,4.82,4.82,0,0,0,1.88-.66,3.62,3.62,0,0,0,1.25-1.27,5,5,0,0,0,.62-1.78,4.4,4.4,0,0,0-.17-2.2l-3.81-.57-.86,3.13Z" />
    <path d="M31,385.05l-2-.58,0,.1,1.73,1.08,5.47,4.68-.09.48-6.85,2.6-2,.35,0,.1,2.07.11,9.14,1.7-.28,1.51-13.58-2.53.22-1.2,7.74-3,1.63-.35v0l-1.44-.89-6.15-5.35.23-1.26,13.58,2.54-.3,1.61Z" />
    <path d="M28,377l1.63-7.34,1.43.32-1.28,5.74,4.42,1,1.16-5.26,1.43.32-1.17,5.26,4.8,1.06,1.3-5.84,1.42.32L41.53,380Z" />
    <path d="M36.15,363.23l-2.19.54,0,.08,2,.3,8.76,2.24-.39,1.49L30.7,364.4l.21-.84,10.57-4.12,2.09-.52,0-.1-1.88-.26L33,356.33l.38-1.49L47,358.31l-.21.85Z" />
    <path d="M38.76,341.22l-1.2,4.13,11.87,3.44L49,350.37l-11.86-3.44-1.2,4.13-1.4-.41,2.85-9.84Z" />
    <path d="M56.6,288.88c.07-.24.16-.51.27-.79s.23-.59.36-.9.27-.61.39-.91l.36-.82a7.23,7.23,0,0,1,1.66-2.4,5.25,5.25,0,0,1,2.13-1.23,5.89,5.89,0,0,1,2.49-.16,9.72,9.72,0,0,1,2.73.82,9.5,9.5,0,0,1,2.3,1.44,6.67,6.67,0,0,1,1.61,2,5.82,5.82,0,0,1,.6,2.53,7,7,0,0,1-.72,3c-.08.2-.2.44-.34.75s-.3.61-.47.92l-.45.88a5.28,5.28,0,0,1-.32.57ZM59.33,286l-.23.51c-.09.19-.16.37-.23.56s-.14.35-.19.51-.1.27-.13.36l10.07,4.58c0-.06.09-.17.18-.33s.17-.34.25-.52l.26-.51.16-.34a5.06,5.06,0,0,0,.53-2.3,4.07,4.07,0,0,0-.54-1.9,5.2,5.2,0,0,0-1.34-1.48,9.22,9.22,0,0,0-1.85-1.1,9,9,0,0,0-1.86-.61,5,5,0,0,0-1.92,0,4.21,4.21,0,0,0-1.77.77A4.65,4.65,0,0,0,59.33,286Z" />
    <path d="M63,275.06l3.32-6.75,1.31.65L65,274.23l4.06,2,2.38-4.83,1.31.64-2.38,4.83,4.41,2.18,2.64-5.37,1.31.65-3.36,6.83Z" />
    <path d="M75.43,257.68a3.88,3.88,0,0,1,.82.61,3.54,3.54,0,0,1,.62.87,3.15,3.15,0,0,1,.31,1.08,4,4,0,0,1-.09,1.27l.07,0a4.77,4.77,0,0,1,.83-.85,3,3,0,0,1,1-.54,3,3,0,0,1,1.2-.12,3.3,3.3,0,0,1,1.36.43A3.75,3.75,0,0,1,83,261.72a3.9,3.9,0,0,1,.58,1.63,5.25,5.25,0,0,1-.13,1.79,7.34,7.34,0,0,1-.68,1.79c-.1.2-.23.43-.37.7s-.29.54-.47.82-.35.56-.53.84a5.37,5.37,0,0,1-.53.69l-12-6.36c.16-.46.36-1,.62-1.59s.56-1.23.92-1.9a9.87,9.87,0,0,1,.84-1.33,4.44,4.44,0,0,1,1.12-1.05,2.86,2.86,0,0,1,3.08-.07Zm-.07,6.38c.11-.2.23-.44.36-.73a7.47,7.47,0,0,0,.32-.72,6.45,6.45,0,0,0,.08-1,3.83,3.83,0,0,0-.13-.9,2.34,2.34,0,0,0-.39-.79,2.25,2.25,0,0,0-.68-.58,2.19,2.19,0,0,0-1.07-.28,1.82,1.82,0,0,0-.91.27,2.79,2.79,0,0,0-.77.66,5.51,5.51,0,0,0-.6.91c-.2.38-.38.74-.53,1.07a4.52,4.52,0,0,0-.31.77L74.88,265Zm6.23,2.07A4.69,4.69,0,0,0,82,265a3,3,0,0,0,.07-1.14,2.37,2.37,0,0,0-.37-1,2.11,2.11,0,0,0-.87-.76,2.33,2.33,0,0,0-1.3-.33,2.26,2.26,0,0,0-1.08.4,3.58,3.58,0,0,0-.88.86,8.43,8.43,0,0,0-.69,1.1l-.81,1.52,4.38,2.32a2,2,0,0,0,.24-.32l.29-.48c.11-.16.21-.34.31-.52S81.52,266.27,81.59,266.13Z" />
    <path d="M80.65,244.9l-2.12,3.74,10.75,6.09-.81,1.42-10.75-6.08-2.12,3.74-1.27-.72,5-8.91Z" />
    <path d="M94.51,228.2l-1.65-1.27,0,.08,1.2,1.65L97.36,235l-.26.42-7.32-.13-2-.4,0,.08,1.88.87,7.85,5-.82,1.31L85,234.75l.65-1,8.28.12,1.65.27,0,0-1-1.36-3.74-7.24.69-1.09,11.67,7.39-.87,1.38Z" />
    <path d="M106.66,219.86,103.8,224l2.39,3.3-.92,1.35-8.64-12.23.42-.62,14.55,3.57-1,1.44Zm-3.73,2.94,2.28-3.34-4.34-1.1-2-.78v0l1.48,1.61Z" />
    <path d="M107.9,209.07l-2.23-.32,0,.06,1.73,1,7.29,5.34-.9,1.24-11.33-8.28.51-.7,11.34.1,2.14.29,0-.08-1.65-1-7.27-5.31.91-1.24,11.33,8.28-.51.7Z" />
    <path d="M123.78,196.71l-3.12,4,2.17,3.44-1,1.29L114,192.67l.46-.59,14.29,4.51L127.66,198Zm-3.92,2.7,2.49-3.19-4.25-1.38-1.95-.9,0,0,1.38,1.69Z" />
    <path d="M128.44,186.11l3-3.57,4.67,3.88a3.7,3.7,0,0,1-.15.87,6.37,6.37,0,0,1-.35.94,7.63,7.63,0,0,1-.5.93,8.3,8.3,0,0,1-.63.86,6.67,6.67,0,0,1-1.87,1.6,5.09,5.09,0,0,1-2.23.64,6.18,6.18,0,0,1-2.52-.45,10.19,10.19,0,0,1-2.74-1.69,8.81,8.81,0,0,1-2.17-2.52,6.55,6.55,0,0,1-.79-2.53,5.5,5.5,0,0,1,.31-2.33,6.43,6.43,0,0,1,1.11-2,12.12,12.12,0,0,1,1.35-1.43,6,6,0,0,1,1.1-.78l.85,1.26a6.19,6.19,0,0,0-2.09,1.77,5.07,5.07,0,0,0-.83,1.45,3.8,3.8,0,0,0-.2,1.75,5,5,0,0,0,.67,1.94,7.62,7.62,0,0,0,1.8,2,8.5,8.5,0,0,0,2.16,1.36,4.92,4.92,0,0,0,1.95.41,3.74,3.74,0,0,0,1.73-.45,4.67,4.67,0,0,0,1.45-1.2,4.43,4.43,0,0,0,1-2l-3-2.45-2.36,2.22Z" />
    <path d="M129.41,174.25l5-5.64,1.1,1L131.59,174l3.39,3,3.56-4,1.1,1-3.57,4,3.69,3.26,4-4.49,1.1,1-5,5.71Z" />
    <path d="M148.56,160l-1.37-1.56-.07.07.86,1.85,2.07,6.89-.34.36-7.16-1.53-1.85-.77-.07.07,1.68,1.21,6.76,6.38L148,174.11l-10-9.48.84-.89,8.1,1.71,1.57.58,0,0-.73-1.53-2.28-7.82.88-.93,10.05,9.48-1.13,1.19Z" />
    <path d="M150.39,151.67l5.34-5.29,1,1-4.18,4.14,3.18,3.21,3.83-3.79,1,1-3.83,3.8,3.46,3.49,4.25-4.21,1,1-5.41,5.36Z" />
    <path d="M164.67,144.45l-2.14-.73-.05.05,1.5,1.32,6.16,6.62-1.13,1-9.56-10.27.64-.59,11.11,2.24,2.05.69.07-.07-1.45-1.24-6.13-6.59,1.13-1,9.55,10.27-.63.59Z" />
    <path d="M178.76,127.34l-3.24,2.83,8.13,9.3-1.24,1.08-8.12-9.3-3.24,2.83-1-1.1,7.71-6.74Z" />
    <path d="M243.28,83.32a3.58,3.58,0,0,1,.39.94,3.5,3.5,0,0,1,.09,1.07,3.34,3.34,0,0,1-.29,1.08,3.87,3.87,0,0,1-.73,1l0,.07a4.57,4.57,0,0,1,1.14-.3,3.23,3.23,0,0,1,1.16.06,3.3,3.3,0,0,1,1.09.52,3.46,3.46,0,0,1,1,1.07,3.63,3.63,0,0,1,.23,3.5,5,5,0,0,1-1,1.47,7.85,7.85,0,0,1-1.5,1.19l-.67.4c-.26.16-.54.32-.83.47l-.89.44a5.85,5.85,0,0,1-.81.32l-7-11.63q.57-.48,1.35-1c.53-.38,1.12-.76,1.77-1.16a9.26,9.26,0,0,1,1.41-.7,4.5,4.5,0,0,1,1.49-.33,3.09,3.09,0,0,1,1.45.31A3,3,0,0,1,243.28,83.32Zm-3.34,5.43.69-.44c.26-.17.48-.32.64-.45a5.72,5.72,0,0,0,.56-.79,3.8,3.8,0,0,0,.36-.84,2.37,2.37,0,0,0,.07-.88,2.06,2.06,0,0,0-.29-.84,2.12,2.12,0,0,0-.77-.8,2.1,2.1,0,0,0-.92-.24,3,3,0,0,0-1,.18,5.19,5.19,0,0,0-1,.47c-.37.22-.71.44-1,.64a5.42,5.42,0,0,0-.65.5l2.43,4Zm4.28,5a4.87,4.87,0,0,0,1-.76,2.93,2.93,0,0,0,.65-1,2.41,2.41,0,0,0,.21-1,2.69,2.69,0,0,0-1.31-2,2.3,2.3,0,0,0-1.12-.22,3.51,3.51,0,0,0-1.2.29,8,8,0,0,0-1.17.58l-1.47.89,2.56,4.24a1.58,1.58,0,0,0,.37-.15l.49-.25.54-.29Z" />
    <path d="M253.31,74l1.38-.77,4.51,8a6.3,6.3,0,0,1,.77,2,3.78,3.78,0,0,1-.08,1.75,3.71,3.71,0,0,1-.84,1.46,6.36,6.36,0,0,1-1.5,1.16,5.39,5.39,0,0,1-3.76.84,4.23,4.23,0,0,1-2.73-2.31l-4.67-8.32,1.43-.8,4.29,7.64a6.24,6.24,0,0,0,1,1.44,2.72,2.72,0,0,0,1.11.71,2.39,2.39,0,0,0,1.22,0,4.58,4.58,0,0,0,1.36-.53,2.73,2.73,0,0,0,1.56-1.89,4.66,4.66,0,0,0-.81-2.86Z" />
    <path d="M270,76.76a1.92,1.92,0,0,0-1.06-1,5.16,5.16,0,0,0-1.53-.25,15.48,15.48,0,0,0-1.77.07,8.58,8.58,0,0,1-1.83,0,4.48,4.48,0,0,1-1.67-.53,3.24,3.24,0,0,1-1.3-1.44,3.13,3.13,0,0,1-.19-2.8A4.9,4.9,0,0,1,263,68.5a12.44,12.44,0,0,1,2-.85,5.88,5.88,0,0,1,1.57-.31l.24,1.52a6.64,6.64,0,0,0-1.38.24,8.8,8.8,0,0,0-1.85.74,2.86,2.86,0,0,0-1.47,1.42,1.8,1.8,0,0,0,.06,1.51,1.76,1.76,0,0,0,1,.91,5.09,5.09,0,0,0,1.52.25c.56,0,1.16,0,1.8,0a10.31,10.31,0,0,1,1.85.07,4.82,4.82,0,0,1,1.67.54,3.2,3.2,0,0,1,1.28,1.38,3.94,3.94,0,0,1,.45,1.57,3.3,3.3,0,0,1-.25,1.51,4.22,4.22,0,0,1-.95,1.38A6.35,6.35,0,0,1,269,81.5a10.47,10.47,0,0,1-2.27.93,6.47,6.47,0,0,1-1.57.25L265,81.13a5.82,5.82,0,0,0,1.41-.19,7.5,7.5,0,0,0,1.88-.7,6.13,6.13,0,0,0,1-.68,2.89,2.89,0,0,0,.68-.83,2.06,2.06,0,0,0,.25-.94A2,2,0,0,0,270,76.76Z" />
    <path d="M271.29,64.56l1.47-.72,6.11,12.39L277.4,77Z" />
    <path d="M282.4,64.5l-1.8-1.36-.07,0,1,1.73,3.79,8.21-1.4.64L278.05,61l.79-.36,9.87,5.6,1.72,1.29.09,0-1-1.63-3.77-8.17,1.4-.65L293,69.79l-.79.37Z" />
    <path d="M292.34,54.79l6.92-2.93.57,1.34-5.41,2.29,1.76,4.16,5-2.1.57,1.35-5,2.1,1.92,4.52,5.5-2.33.57,1.35-7,3Z" />
    <path d="M313.75,57.18a1.93,1.93,0,0,0-.95-1.08,5,5,0,0,0-1.49-.41,14,14,0,0,0-1.77-.13,8.88,8.88,0,0,1-1.81-.21,4.44,4.44,0,0,1-1.6-.71A3.34,3.34,0,0,1,305,53.06a3.19,3.19,0,0,1,.12-2.8,4.8,4.8,0,0,1,2.63-2,12.67,12.67,0,0,1,2.11-.63,5.67,5.67,0,0,1,1.59-.14l.08,1.54a6.26,6.26,0,0,0-1.4.09,8.18,8.18,0,0,0-1.92.53,2.81,2.81,0,0,0-1.61,1.25,1.78,1.78,0,0,0-.11,1.52,1.81,1.81,0,0,0,.93,1,4.93,4.93,0,0,0,1.48.41c.56.07,1.15.12,1.79.16a9.18,9.18,0,0,1,1.83.27,4.68,4.68,0,0,1,1.61.72,3.18,3.18,0,0,1,1.12,1.51,3.84,3.84,0,0,1,.28,1.6,3.39,3.39,0,0,1-.41,1.48,4.22,4.22,0,0,1-1.1,1.27,6.54,6.54,0,0,1-1.74,1,11.07,11.07,0,0,1-2.36.68,6.94,6.94,0,0,1-1.58.07V61a5.79,5.79,0,0,0,1.42,0,7.78,7.78,0,0,0,1.95-.5,5.6,5.6,0,0,0,1.09-.57,2.6,2.6,0,0,0,.77-.74,2,2,0,0,0,.35-.91A2.07,2.07,0,0,0,313.75,57.18Z" />
    <path d="M325.44,52.89a2,2,0,0,0-.92-1.11,4.94,4.94,0,0,0-1.48-.45,15.56,15.56,0,0,0-1.77-.18,8.23,8.23,0,0,1-1.8-.26,4.37,4.37,0,0,1-1.58-.76,3.3,3.3,0,0,1-1.1-1.61,3.16,3.16,0,0,1,.19-2.79,4.86,4.86,0,0,1,2.69-2,12.59,12.59,0,0,1,2.13-.57,5.8,5.8,0,0,1,1.6-.09l0,1.54a6.93,6.93,0,0,0-1.4,0,8.84,8.84,0,0,0-1.94.48,2.84,2.84,0,0,0-1.64,1.21,1.83,1.83,0,0,0,.75,2.55,5.08,5.08,0,0,0,1.47.45c.55.09,1.14.16,1.78.21a9.75,9.75,0,0,1,1.82.32,5.08,5.08,0,0,1,1.59.76,3.2,3.2,0,0,1,1.07,1.55,4,4,0,0,1,.25,1.61,3.39,3.39,0,0,1-.47,1.46,4.23,4.23,0,0,1-1.12,1.25,6.84,6.84,0,0,1-1.77.92,10.28,10.28,0,0,1-2.38.61,6.09,6.09,0,0,1-1.58,0l0-1.56a6,6,0,0,0,1.43,0,8,8,0,0,0,1.95-.44,5.72,5.72,0,0,0,1.11-.54,2.77,2.77,0,0,0,.79-.72,2.12,2.12,0,0,0,.38-.9A2,2,0,0,0,325.44,52.89Z" />
    <path d="M335.23,38.89a10.16,10.16,0,0,1,1.48-.7c.54-.21,1.08-.4,1.62-.56a9.63,9.63,0,0,1,1.82-.38,5,5,0,0,1,1.82.12,3.71,3.71,0,0,1,1.58.88,4.12,4.12,0,0,1,1.08,1.88,4.51,4.51,0,0,1,.2,2.17,4,4,0,0,1-.74,1.7,4.88,4.88,0,0,1-1.41,1.25,8.35,8.35,0,0,1-1.83.81l-.32.1-.45.13-.47.11a1.65,1.65,0,0,1-.33.06l1.54,5-1.57.48Zm3.56.08-.94.31a3.23,3.23,0,0,0-.69.32l1.69,5.47a1.13,1.13,0,0,0,.31,0l.44-.11.44-.13.3-.09a6.06,6.06,0,0,0,1.23-.52,3.32,3.32,0,0,0,1-.79,2.4,2.4,0,0,0,.54-1.16,3.2,3.2,0,0,0-.15-1.58,2.67,2.67,0,0,0-.68-1.21,2.61,2.61,0,0,0-1-.59,3.58,3.58,0,0,0-1.23-.11A6.47,6.47,0,0,0,338.79,39Z" />
    <path d="M359.5,46.06l-7.87,2.18-3.69-13.31,1.58-.44,3.29,11.9,6.3-1.74Z" />
    <path d="M367.29,40.15l-4.92,1.22L362,45.42l-1.59.4,1.68-14.88.73-.18,8.49,12.34-1.69.42Zm-4.75-.28,3.93-1L364,35.18l-1-1.91h0l0,2.19Z" />
    <path d="M375.41,32.91,374,31.19h-.08l.61,1.91L376.39,42l-1.51.32-2.95-13.72.85-.18,8.4,7.62,1.4,1.64.1,0-.61-1.81-1.9-8.8,1.51-.32,2.95,13.72-.85.18Z" />
    <path d="M390.55,29.84l-1.4-1.77h-.08l.55,1.93,1.59,8.9-1.51.27-2.48-13.81.86-.16,8.13,7.91,1.34,1.68.1,0L397.1,33l-1.59-8.86,1.52-.27,2.48,13.81-.86.15Z" />
    <path d="M402.94,22.9l1.62-.25,2.09,13.66-1.62.25Z" />
    <path d="M413.54,26.2l-1.31-1.85h-.08l.45,2,1.13,9-1.52.2-1.77-13.92.86-.11L419,29.76l1.26,1.75h.1l-.46-1.85-1.13-8.93,1.53-.2,1.76,13.92-.86.12Z" />
    <path d="M431.26,26.38l4.62-.43.56,6.05a4.19,4.19,0,0,1-.71.5,7.8,7.8,0,0,1-1.94.73,8,8,0,0,1-1,.16,6.63,6.63,0,0,1-2.46-.19,5.13,5.13,0,0,1-2-1.12A6,6,0,0,1,426.8,30a9.72,9.72,0,0,1-.75-3.13,8.51,8.51,0,0,1,.25-3.31,6.34,6.34,0,0,1,1.22-2.34,5.5,5.5,0,0,1,1.87-1.44,6.58,6.58,0,0,1,2.17-.6,12.17,12.17,0,0,1,1.95,0,6.46,6.46,0,0,1,1.33.22l-.27,1.5a6.14,6.14,0,0,0-2.74-.22,5,5,0,0,0-1.62.43,4,4,0,0,0-1.37,1.09,5.24,5.24,0,0,0-.9,1.85,7.51,7.51,0,0,0-.16,2.71,8.46,8.46,0,0,0,.57,2.49,4.94,4.94,0,0,0,1.09,1.67,3.71,3.71,0,0,0,1.54.91,5,5,0,0,0,1.87.17,4.35,4.35,0,0,0,2.09-.69l-.36-3.84-3.23-.09Z" />
    <path d="M425.62,416.88l.47,3.46h0l.51-3.52,4.29-13.92h1.2l4.32,14,.52,3.46h0l.55-3.52,3.52-13.92h2.39l-5.82,21.2h-1.37l-4.24-14-.53-3.16h-.15l-.54,3.19-4.23,14H425.2l-6-21.2h2.63Z" style="fill: #222629" />
    <path d="M461.7,414.2h-10v9.57H449.2V402.9h2.48V412h10V402.9h2.47v20.87H461.7Z" style="fill: #222629" />
    <path d="M482.13,418h-7.65l-2.08,5.79h-2.47l7.9-21.2H479l7.93,21.2h-2.62Zm-6.85-2.14h6.11l-2.31-6.35-.74-3.16h0l-.75,3.22Z" style="fill: #222629" />
    <path d="M506.13,405.1h-6.5v18.67h-2.48V405.1h-6.5v-2.2h15.48Z" style="fill: #222629" />
    <path d="M523.69,402.9h2.47v20.87h-2.47Z" style="fill: #222629" />
    <path d="M544.21,418.46a2.85,2.85,0,0,0-.75-2,7.55,7.55,0,0,0-1.86-1.4,25,25,0,0,0-2.43-1.15,12.8,12.8,0,0,1-2.43-1.3,6.7,6.7,0,0,1-1.87-1.88,5.06,5.06,0,0,1-.74-2.84,4.78,4.78,0,0,1,1.7-3.88,7.25,7.25,0,0,1,4.83-1.43,18.71,18.71,0,0,1,3.31.27,8.78,8.78,0,0,1,2.32.68l-.74,2.21a9.78,9.78,0,0,0-2-.65,13.53,13.53,0,0,0-3-.31,4.33,4.33,0,0,0-2.95.88,2.7,2.7,0,0,0-1,2.08,2.65,2.65,0,0,0,.75,1.93,7.4,7.4,0,0,0,1.86,1.39c.75.41,1.56.81,2.43,1.21a14.36,14.36,0,0,1,2.43,1.39,7.15,7.15,0,0,1,1.87,1.89,4.85,4.85,0,0,1,.74,2.74,5.87,5.87,0,0,1-.48,2.42,5,5,0,0,1-1.4,1.85,6.6,6.6,0,0,1-2.23,1.19,9.82,9.82,0,0,1-3,.42,16.36,16.36,0,0,1-3.69-.35,9.6,9.6,0,0,1-2.27-.76l.83-2.2a9.77,9.77,0,0,0,2,.74,11.66,11.66,0,0,0,3,.36,8.34,8.34,0,0,0,1.85-.19,4.12,4.12,0,0,0,1.49-.63,3.16,3.16,0,0,0,1-1.09A3.07,3.07,0,0,0,544.21,418.46Z" style="fill: #222629" />
    <path d="M288.87,482a10.36,10.36,0,0,1-4,1.6,25.43,25.43,0,0,1-5,.48,17.86,17.86,0,0,1-5.83-.95,12.56,12.56,0,0,1-4.85-3.07,15,15,0,0,1-3.34-5.52,23.93,23.93,0,0,1-1.25-8.22,22.23,22.23,0,0,1,1.39-8.42,15.27,15.27,0,0,1,3.61-5.46,13.35,13.35,0,0,1,4.95-3,17.46,17.46,0,0,1,5.47-.9,26.68,26.68,0,0,1,5,.39,17.69,17.69,0,0,1,3.34.93l-1.31,5.66a9.93,9.93,0,0,0-2.66-.79,24.78,24.78,0,0,0-3.74-.24,8.12,8.12,0,0,0-6.51,2.89q-2.46,2.88-2.46,8.94a18.57,18.57,0,0,0,.58,4.82,10.54,10.54,0,0,0,1.78,3.72,8.29,8.29,0,0,0,3,2.39,9.42,9.42,0,0,0,4.12.86,13.56,13.56,0,0,0,3.71-.44,11,11,0,0,0,2.64-1.12Z" style="fill: #222629" />
    <path d="M296.82,466.33q0-8.54,3.76-13.15t10.74-4.61a15,15,0,0,1,6.39,1.27,12.07,12.07,0,0,1,4.54,3.61,15.72,15.72,0,0,1,2.68,5.61,27.8,27.8,0,0,1,.88,7.27q0,8.54-3.78,13.15t-10.71,4.61a15.1,15.1,0,0,1-6.44-1.27,11.85,11.85,0,0,1-4.52-3.61,16,16,0,0,1-2.66-5.61A28.23,28.23,0,0,1,296.82,466.33Zm7,0a24.31,24.31,0,0,0,.44,4.76,12.21,12.21,0,0,0,1.34,3.73,7,7,0,0,0,2.32,2.44,6.86,6.86,0,0,0,8.88-1.9q1.95-2.79,1.95-9a24.28,24.28,0,0,0-.41-4.64,13.13,13.13,0,0,0-1.29-3.75,6.76,6.76,0,0,0-2.3-2.52,6.87,6.87,0,0,0-9,2Q303.85,460.23,303.85,466.33Z" style="fill: #222629" />
    <path d="M362,465.7l.73-6.79h-.29l-2.1,5.47L353,477.11h-2.15l-7.66-12.78-2.15-5.42h-.24l1,6.74v17.76h-6.34V449.25h6.1l9.12,15.62,1.62,3.9h.19l1.47-4,8.63-15.52h6v34.16H362Z" style="fill: #222629" />
    <path d="M379.39,449.59c1.36-.26,2.87-.46,4.51-.61s3.28-.22,4.9-.22a31.55,31.55,0,0,1,5.11.42,12.71,12.71,0,0,1,4.6,1.66,9.6,9.6,0,0,1,3.35,3.46,11.43,11.43,0,0,1,1.29,5.78,11.93,11.93,0,0,1-1.12,5.44,10.36,10.36,0,0,1-3,3.64,12,12,0,0,1-4.22,2,19,19,0,0,1-4.9.63h-.78c-.36,0-.74,0-1.13,0l-1.14-.07-.81-.1v11.76h-6.68Zm9.95,4.93c-.65,0-1.27,0-1.85.07s-1.06.11-1.42.17v11.08a5.36,5.36,0,0,0,.59.1c.26,0,.54.06.83.07l.85,0H389a13.42,13.42,0,0,0,2.61-.25,6.39,6.39,0,0,0,2.32-.9,4.68,4.68,0,0,0,1.63-1.83,6.62,6.62,0,0,0,.62-3.07,5.4,5.4,0,0,0-.59-2.66,4.82,4.82,0,0,0-1.54-1.69,6.16,6.16,0,0,0-2.17-.88A12.82,12.82,0,0,0,389.34,454.52Z" style="fill: #222629" />
    <path d="M412.18,449.59c.75-.13,1.55-.25,2.41-.36s1.73-.21,2.59-.27,1.7-.12,2.51-.15,1.56-.05,2.25-.05a25.56,25.56,0,0,1,4.71.44,12.94,12.94,0,0,1,4.14,1.52,8,8,0,0,1,2.93,2.95,9.22,9.22,0,0,1,1.1,4.71,11.21,11.21,0,0,1-1.95,6.83,10.16,10.16,0,0,1-5.22,3.66l2.39,1.51,7.81,13h-7.72L422.38,470l-3.52-.64v14h-6.68Zm10.24,5.13c-.68,0-1.35,0-2,0a7.94,7.94,0,0,0-1.54.2v9.91h2.83a7.14,7.14,0,0,0,4.44-1.27,5,5,0,0,0,1.66-4.2,4.42,4.42,0,0,0-1.36-3.44A5.78,5.78,0,0,0,422.42,454.72Z" style="fill: #222629" />
    <path d="M446.43,449.25h20.25v5.95H453.12v8h12.34v5.95H453.12v8.34h13.81v6h-20.5Z" style="fill: #222629" />
    <path d="M496,469.11H483.47v14.3h-6.69V449.25h6.69v13.91H496V449.25h6.68v34.16H496Z" style="fill: #222629" />
    <path d="M513.43,449.25h20.25v5.95H520.11v8h12.35v5.95H520.11v8.34h13.81v6H513.43Z" style="fill: #222629" />
    <path d="M552.27,465.6l-2.69-5.37h-.24l.78,5.37v17.81h-6.34V449h4.88l12.93,18.2,2.58,5.22h.25l-.78-5.22v-18H570v34.4H565.1Z" style="fill: #222629" />
    <path d="M595.45,474.23a3.15,3.15,0,0,0-1.15-2.53,12.38,12.38,0,0,0-2.87-1.78c-1.16-.54-2.41-1.09-3.76-1.66a19.11,19.11,0,0,1-3.76-2.1,10.81,10.81,0,0,1-2.88-3.1,8.91,8.91,0,0,1-1.14-4.73,10.28,10.28,0,0,1,.83-4.32,8.08,8.08,0,0,1,2.36-3.05,10.28,10.28,0,0,1,3.64-1.81,17.38,17.38,0,0,1,4.68-.58,29.4,29.4,0,0,1,5.61.51,14.27,14.27,0,0,1,4.35,1.49l-2.1,5.61a11.87,11.87,0,0,0-3.22-1.24,18,18,0,0,0-4.64-.57,5.9,5.9,0,0,0-3.58.93,3,3,0,0,0-1.25,2.49,3.05,3.05,0,0,0,1.15,2.44A13.34,13.34,0,0,0,590.6,462c1.15.55,2.4,1.12,3.75,1.7a20.31,20.31,0,0,1,3.76,2.13,11,11,0,0,1,2.88,3.07,8.48,8.48,0,0,1,1.15,4.56,11.15,11.15,0,0,1-.91,4.71,8.9,8.9,0,0,1-2.53,3.3,11,11,0,0,1-4,1.95,19.36,19.36,0,0,1-5.1.63,27.49,27.49,0,0,1-6.44-.68,19.81,19.81,0,0,1-4.1-1.37l2.15-5.71a12.77,12.77,0,0,0,1.39.64,16.22,16.22,0,0,0,1.93.63,21.08,21.08,0,0,0,2.27.49,15.32,15.32,0,0,0,2.46.19,8.59,8.59,0,0,0,4.57-1A3.36,3.36,0,0,0,595.45,474.23Z" style="fill: #222629" />
    <path d="M612.14,449.25h6.68v34.16h-6.68Z" style="fill: #222629" />
    <path d="M641.46,469.31l.88,5.8h.25l1-5.85,6.54-20h7l-12.69,34.4h-4.78l-12.79-34.4h7.76Z" style="fill: #222629" />
    <path d="M664.49,449.25h20.26v5.95H671.18v8h12.35v5.95H671.18v8.34H685v6h-20.5Z" style="fill: #222629" />
    <path d="M344.72,509.23c1.36-.26,2.87-.46,4.51-.61s3.28-.22,4.9-.22a31.52,31.52,0,0,1,5.1.42,12.51,12.51,0,0,1,4.61,1.66,9.68,9.68,0,0,1,3.35,3.46,11.43,11.43,0,0,1,1.29,5.78,11.93,11.93,0,0,1-1.12,5.44,10.36,10.36,0,0,1-3,3.64,12,12,0,0,1-4.22,2.05,19,19,0,0,1-4.9.63h-.78l-1.13,0-1.14-.07c-.38,0-.65-.07-.81-.1v11.76h-6.68Zm9.95,4.93c-.65,0-1.27,0-1.85.07s-1.06.11-1.42.17v11.08a5.36,5.36,0,0,0,.59.1c.26,0,.53.06.83.07l.85,0h.61a13.42,13.42,0,0,0,2.61-.25,6.39,6.39,0,0,0,2.32-.9,4.68,4.68,0,0,0,1.63-1.83,6.62,6.62,0,0,0,.61-3.07,5.4,5.4,0,0,0-.58-2.66,4.92,4.92,0,0,0-1.54-1.69,6.16,6.16,0,0,0-2.17-.88A12.89,12.89,0,0,0,354.67,514.16Z" style="fill: #222629" />
    <path d="M399.12,543.05H377.51V508.89h6.68v28.2h14.93Z" style="fill: #222629" />
    <path d="M424.3,535.48H413.81l-2.59,7.57h-6.68l12.3-34.4h4.92l12.3,34.4h-7Zm-8.78-5.36h7.32l-2.54-7.62-1-5.36H419l-1,5.41Z" style="fill: #222629" />
    <path d="M450.36,525.24l-2.69-5.37h-.24l.78,5.37v17.81h-6.34v-34.4h4.88l12.93,18.2,2.58,5.22h.25l-.78-5.22v-18h6.34v34.4h-4.88Z" style="fill: #222629" />
    <path d="M487.29,525.24l-2.68-5.37h-.24l.78,5.37v17.81H478.8v-34.4h4.88l12.93,18.2,2.59,5.22h.25l-.79-5.22v-18H505v34.4h-4.88Z" style="fill: #222629" />
    <path d="M516.43,508.89h6.68v34.16h-6.68Z" style="fill: #222629" />
    <path d="M543,525.24l-2.68-5.37h-.25l.78,5.37v17.81h-6.34v-34.4h4.88l12.93,18.2,2.59,5.22h.24l-.78-5.22v-18h6.34v34.4h-4.88Z" style="fill: #222629" />
    <path d="M583.52,525.24h12.73v15.22a12.77,12.77,0,0,1-4.9,2.49,21.3,21.3,0,0,1-5.64.78,17.62,17.62,0,0,1-6.07-1,12.58,12.58,0,0,1-4.86-3.2,15.29,15.29,0,0,1-3.22-5.54,24.41,24.41,0,0,1-1.17-8,21.8,21.8,0,0,1,1.39-8.22,15.58,15.58,0,0,1,3.66-5.52,13.91,13.91,0,0,1,5.1-3.07,17.84,17.84,0,0,1,5.76-1,26.23,26.23,0,0,1,5.15.44,24.47,24.47,0,0,1,3.54.92l-1.37,5.62a13.71,13.71,0,0,0-2.73-.76,22.69,22.69,0,0,0-3.86-.27,11.31,11.31,0,0,0-3.85.63,7.53,7.53,0,0,0-3,2.08,9.76,9.76,0,0,0-2,3.68,21.17,21.17,0,0,0,0,10.76A10.23,10.23,0,0,0,580,535a7.4,7.4,0,0,0,2.85,2.12,8.87,8.87,0,0,0,3.49.69,10,10,0,0,0,2.49-.32,5.8,5.8,0,0,0,2-1v-6.44l-7.37-.78Z" style="fill: #222629" />
    <path d="M609.77,532.9a12.07,12.07,0,0,1,.25-4.32,10.4,10.4,0,0,1,1.34-3.07,10.67,10.67,0,0,1,1.95-2.25c.73-.63,1.41-1.24,2.05-1.83a9.86,9.86,0,0,0,1.58-1.83,3.93,3.93,0,0,0,.64-2.27,3.86,3.86,0,0,0-1-2.73,4.55,4.55,0,0,0-3.39-1,8.21,8.21,0,0,0-1.66.17,11.52,11.52,0,0,0-1.76.48,15,15,0,0,0-1.68.74,11.91,11.91,0,0,0-1.44.85l-2.44-4.68a17.34,17.34,0,0,1,4.27-2.1,17.84,17.84,0,0,1,5.83-.83,10.65,10.65,0,0,1,7.17,2.22,7.46,7.46,0,0,1,2.59,6,11.11,11.11,0,0,1-.66,4.12,10,10,0,0,1-1.64,2.78,13.67,13.67,0,0,1-2.14,2,18.6,18.6,0,0,0-2.15,1.87,9.85,9.85,0,0,0-1.66,2.32,7.24,7.24,0,0,0-.68,3.37Zm-1,6.93a3.51,3.51,0,0,1,1.07-2.71,4,4,0,0,1,2.83-1,4.12,4.12,0,0,1,2.93,1,3.55,3.55,0,0,1,1.07,2.71,3.61,3.61,0,0,1-1.07,2.73,4.08,4.08,0,0,1-2.93,1,3.93,3.93,0,0,1-2.83-1A3.57,3.57,0,0,1,608.8,539.83Z" style="fill: #222629" />
</svg>